<?xml version="1.0" encoding="utf-8"?>
<!-- Generator: Adobe Illustrator 25.0.1, SVG Export Plug-In . SVG Version: 6.00 Build 0)  -->
<svg version="1.0" id="katman_1" xmlns="http://www.w3.org/2000/svg" xmlns:xlink="http://www.w3.org/1999/xlink" x="0px" y="0px"
	 viewBox="0 0 600 400" style="enable-background:new 0 0 600 400;" xml:space="preserve">
<style type="text/css">
	.st0{fill:#04111D;}
	.st1{fill:#2081E2;}
	.st2{fill:#FFFFFF;}
</style>
<path class="st0" d="M229.2,218.6c-4.5,0-8.7-1-12.5-3c-3.7-2-6.7-4.8-9-8.5c-2.2-3.7-3.3-7.8-3.3-12.3c0-4.5,1.1-8.6,3.3-12.2
	c2.2-3.6,5.2-6.4,9-8.5c3.8-2,7.9-3,12.5-3c4.5,0,8.7,1,12.4,3c3.8,2,6.8,4.8,8.9,8.5c2.2,3.6,3.3,7.7,3.3,12.2
	c0,4.5-1.1,8.6-3.3,12.3c-2.2,3.6-5.2,6.4-8.9,8.5C237.9,217.6,233.7,218.6,229.2,218.6z M229.2,208.3c3.8,0,6.9-1.2,9.2-3.7
	c2.3-2.5,3.5-5.7,3.5-9.8c0-4.1-1.2-7.4-3.5-9.8c-2.3-2.5-5.3-3.7-9.2-3.7c-3.9,0-7,1.2-9.3,3.6c-2.3,2.4-3.4,5.7-3.4,9.8
	c0,4.1,1.1,7.4,3.4,9.8C222.2,207.1,225.3,208.3,229.2,208.3z"/>
<path class="st0" d="M272,186.5c1.1-1.7,2.7-3.1,4.7-4.2c2-1.1,4.4-1.6,7.1-1.6c3.2,0,6,0.8,8.6,2.3c2.6,1.5,4.6,3.7,6,6.6
	c1.5,2.9,2.3,6.2,2.3,10s-0.8,7.1-2.3,10c-1.5,2.9-3.5,5.1-6,6.7c-2.6,1.5-5.4,2.3-8.6,2.3c-2.6,0-5-0.5-7.1-1.6
	c-2-1.1-3.6-2.4-4.7-4.1v16.1h-11.7v-47.8H272V186.5z M288.7,199.6c0-2.8-0.8-5-2.5-6.6c-1.6-1.6-3.6-2.4-6-2.4
	c-2.3,0-4.3,0.8-6,2.4c-1.6,1.6-2.4,3.9-2.4,6.7c0,2.8,0.8,5,2.4,6.7c1.6,1.6,3.6,2.4,6,2.4c2.3,0,4.3-0.8,6-2.4
	C287.9,204.7,288.7,202.5,288.7,199.6z"/>
<path class="st0" d="M342.8,199.1c0,1.1-0.1,2.2-0.2,3.3h-26.5c0.2,2.3,0.9,4.1,2.3,5.3c1.4,1.2,3,1.8,5,1.8c2.9,0,5-1.2,6.1-3.6
	h12.5c-0.6,2.4-1.8,4.6-3.5,6.5c-1.6,1.9-3.7,3.5-6.2,4.6c-2.5,1.1-5.3,1.7-8.4,1.7c-3.7,0-7.1-0.8-10-2.3s-5.2-3.7-6.8-6.6
	c-1.6-2.9-2.5-6.2-2.5-10c0-3.8,0.8-7.2,2.4-10c1.6-2.9,3.9-5.1,6.8-6.6s6.3-2.3,10.1-2.3c3.7,0,7,0.7,9.9,2.2
	c2.9,1.5,5.1,3.6,6.7,6.4C342,192.2,342.8,195.4,342.8,199.1z M330.8,196.1c0-1.9-0.7-3.5-2.1-4.6c-1.4-1.1-3.1-1.7-5.1-1.7
	c-2,0-3.6,0.6-5,1.7c-1.3,1.1-2.1,2.7-2.5,4.7H330.8z"/>
<path class="st0" d="M372.3,180.9c4.5,0,8,1.4,10.7,4.2c2.7,2.8,4,6.6,4,11.5v21.5h-11.6v-20c0-2.5-0.7-4.4-2-5.7
	c-1.3-1.4-3.1-2-5.3-2c-2.2,0-4,0.7-5.3,2c-1.3,1.4-2,3.3-2,5.7v20H349v-36.9h11.7v4.9c1.2-1.6,2.8-2.9,4.8-3.8
	C367.5,181.4,369.8,180.9,372.3,180.9z"/>
<path class="st0" d="M412.5,218.6c-3.5,0-6.7-0.6-9.5-1.7s-5-2.7-6.7-4.9c-1.6-2.2-2.5-4.8-2.6-7.8h12.5c0.2,1.7,0.8,3,1.9,4
	c1,0.9,2.4,1.3,4.1,1.3c1.7,0,3.1-0.4,4.1-1.1c1-0.8,1.5-1.9,1.5-3.2c0-1.1-0.4-2.1-1.2-2.8c-0.8-0.7-1.8-1.4-2.9-1.8
	c-1.1-0.5-2.8-1-4.9-1.7c-3.1-0.9-5.6-1.8-7.6-2.8c-2-0.9-3.7-2.3-5.1-4.1c-1.4-1.8-2.1-4.2-2.1-7.1c0-4.3,1.6-7.7,4.9-10.1
	c3.2-2.5,7.5-3.7,12.7-3.7c5.3,0,9.6,1.2,12.8,3.7c3.2,2.4,5,5.8,5.2,10.2h-12.7c-0.1-1.5-0.7-2.7-1.7-3.5c-1-0.9-2.4-1.3-4-1.3
	c-1.4,0-2.6,0.4-3.4,1.1c-0.9,0.7-1.3,1.7-1.3,3.1c0,1.5,0.7,2.7,2.2,3.5c1.5,0.8,3.7,1.7,6.8,2.7c3.1,1,5.6,2,7.5,2.9
	c2,0.9,3.7,2.3,5.1,4c1.4,1.8,2.1,4,2.1,6.8c0,2.6-0.7,5-2.1,7.2c-1.4,2.2-3.4,3.9-6,5.2C419.3,218,416.2,218.6,412.5,218.6z"/>
<path class="st0" d="M473.3,199.1c0,1.1-0.1,2.2-0.2,3.3h-26.5c0.2,2.3,0.9,4.1,2.3,5.3c1.4,1.2,3,1.8,5,1.8c2.9,0,5-1.2,6.1-3.6
	h12.5c-0.6,2.4-1.8,4.6-3.5,6.5c-1.6,1.9-3.7,3.5-6.2,4.6c-2.5,1.1-5.3,1.7-8.4,1.7c-3.7,0-7.1-0.8-10-2.3c-2.9-1.5-5.2-3.7-6.8-6.6
	c-1.6-2.9-2.5-6.2-2.5-10c0-3.8,0.8-7.2,2.4-10c1.6-2.9,3.9-5.1,6.8-6.6s6.3-2.3,10.1-2.3c3.7,0,7,0.7,9.9,2.2
	c2.9,1.5,5.1,3.6,6.7,6.4C472.5,192.2,473.3,195.4,473.3,199.1z M461.3,196.1c0-1.9-0.7-3.5-2.1-4.6c-1.4-1.1-3.1-1.7-5.1-1.7
	c-2,0-3.6,0.6-5,1.7c-1.3,1.1-2.1,2.7-2.5,4.7H461.3z"/>
<path class="st0" d="M477.2,199.6c0-3.8,0.7-7.1,2.2-10c1.5-2.9,3.5-5.1,6.1-6.6s5.4-2.3,8.6-2.3c2.7,0,5,0.5,7.1,1.6
	c2.1,1.1,3.6,2.4,4.7,4.2v-5.2h11.7v36.9h-11.7v-5.2c-1.1,1.7-2.7,3.1-4.8,4.2c-2,1.1-4.4,1.6-7.1,1.6c-3.1,0-5.9-0.8-8.5-2.3
	c-2.6-1.6-4.6-3.8-6.1-6.7C477.9,206.8,477.2,203.4,477.2,199.6z M505.8,199.7c0-2.8-0.8-5-2.5-6.7c-1.6-1.6-3.6-2.4-5.9-2.4
	c-2.3,0-4.3,0.8-6,2.4c-1.6,1.6-2.4,3.8-2.4,6.6s0.8,5.1,2.4,6.7c1.6,1.6,3.6,2.4,6,2.4c2.3,0,4.3-0.8,5.9-2.4
	C505,204.8,505.8,202.5,505.8,199.7z"/>
<path class="st1" d="M183,200.1c0,27.6-22.4,50-50,50s-50-22.4-50-50s22.4-50,50-50C160.6,150.1,183,172.5,183,200.1z"/>
<path class="st2" d="M107.7,201.8l0.2-0.3l13-20.3c0.2-0.3,0.6-0.3,0.8,0.1c2.2,4.9,4,10.9,3.2,14.7c-0.4,1.6-1.4,3.7-2.6,5.6
	c-0.1,0.3-0.3,0.6-0.5,0.8c-0.1,0.1-0.2,0.2-0.4,0.2H108C107.7,202.5,107.5,202.1,107.7,201.8z"/>
<path class="st2" d="M165.6,205.6v3.2c0,0.2-0.1,0.3-0.3,0.4c-1,0.4-4.5,2-5.9,4c-3.7,5.1-6.5,12.4-12.7,12.4h-26.1
	c-9.2,0-16.7-7.5-16.7-16.8v-0.3c0-0.2,0.2-0.4,0.4-0.4H119c0.3,0,0.5,0.3,0.5,0.5c-0.1,0.9,0.1,1.9,0.5,2.8
	c0.9,1.8,2.7,2.8,4.6,2.8h7.2v-5.6h-7.1c-0.4,0-0.6-0.4-0.4-0.7c0.1-0.1,0.2-0.2,0.3-0.4c0.7-1,1.6-2.4,2.6-4.1
	c0.7-1.1,1.3-2.4,1.8-3.6c0.1-0.2,0.2-0.4,0.3-0.7c0.1-0.4,0.3-0.8,0.4-1.1c0.1-0.3,0.2-0.6,0.3-0.9c0.2-1,0.3-2.1,0.3-3.3
	c0-0.4,0-0.9-0.1-1.4c0-0.5-0.1-1-0.1-1.5c0-0.4-0.1-0.9-0.2-1.3c-0.1-0.7-0.2-1.3-0.4-2l-0.1-0.2c-0.1-0.4-0.2-0.9-0.4-1.3
	c-0.4-1.4-0.9-2.8-1.4-4c-0.2-0.5-0.4-1-0.6-1.5c-0.3-0.7-0.6-1.4-0.9-2c-0.1-0.3-0.3-0.5-0.4-0.8c-0.1-0.3-0.3-0.6-0.4-0.9
	c-0.1-0.2-0.2-0.4-0.3-0.6l-0.9-1.6c-0.1-0.2,0.1-0.5,0.3-0.4l5.5,1.5h0c0,0,0,0,0,0l0.7,0.2l0.8,0.2l0.3,0.1V173
	c0-1.6,1.3-2.9,2.8-2.9c0.8,0,1.5,0.3,2,0.8c0.5,0.5,0.8,1.2,0.8,2v4.8l0.6,0.2c0,0,0.1,0,0.1,0.1c0.1,0.1,0.3,0.3,0.6,0.5
	c0.2,0.2,0.4,0.4,0.7,0.6c0.5,0.4,1.2,1,1.9,1.6c0.2,0.2,0.4,0.3,0.5,0.5c0.9,0.8,1.9,1.8,2.9,2.9c0.3,0.3,0.5,0.6,0.8,0.9
	c0.3,0.3,0.5,0.7,0.8,1c0.3,0.4,0.7,0.9,1,1.3c0.1,0.2,0.3,0.4,0.4,0.7c0.4,0.6,0.7,1.2,1.1,1.8c0.1,0.3,0.3,0.6,0.4,0.9
	c0.4,0.8,0.7,1.6,0.8,2.5c0.1,0.2,0.1,0.4,0.1,0.5v0c0.1,0.2,0.1,0.5,0.1,0.8c0.1,0.9,0,1.7-0.1,2.6c-0.1,0.4-0.2,0.7-0.3,1.1
	c-0.1,0.3-0.2,0.7-0.4,1.1c-0.3,0.7-0.7,1.4-1.1,2.1c-0.1,0.2-0.3,0.5-0.5,0.8c-0.2,0.3-0.4,0.5-0.5,0.8c-0.2,0.3-0.5,0.6-0.7,0.9
	c-0.2,0.3-0.4,0.6-0.7,0.9c-0.3,0.4-0.7,0.8-1,1.2c-0.2,0.2-0.4,0.5-0.7,0.7c-0.2,0.2-0.4,0.5-0.7,0.7c-0.3,0.3-0.6,0.6-0.9,0.8
	l-0.6,0.5c-0.1,0.1-0.2,0.1-0.3,0.1h-4.4v5.6h5.5c1.2,0,2.4-0.4,3.3-1.2c0.3-0.3,1.7-1.5,3.4-3.3c0.1-0.1,0.1-0.1,0.2-0.1l15.2-4.4
	C165.4,205.1,165.6,205.3,165.6,205.6z"/>
</svg>
